<svg width="1881" height="1037" viewBox="0 0 1881 1037" fill="none" xmlns="http://www.w3.org/2000/svg">
<mask id="mask0_1_723" style="mask-type:alpha" maskUnits="userSpaceOnUse" x="-22" y="0" width="1903" height="1037">
<rect x="-22" width="1903" height="1037" fill="#FEF4DE"/>
</mask>
<g mask="url(#mask0_1_723)">
<g opacity="0.2">
<path d="M307.183 117.354L281.562 88.6149" stroke="#B76C4E" stroke-width="5" stroke-miterlimit="10" stroke-linecap="round" stroke-linejoin="round"/>
<path d="M282.238 118.359L306.341 87.811" stroke="#B76C4E" stroke-width="5" stroke-miterlimit="10" stroke-linecap="round" stroke-linejoin="round"/>
<path d="M1261.23 117.354L1235.61 88.6149" stroke="#B76C4E" stroke-width="5" stroke-miterlimit="10" stroke-linecap="round" stroke-linejoin="round"/>
<path d="M1236.29 118.359L1260.39 87.811" stroke="#B76C4E" stroke-width="5" stroke-miterlimit="10" stroke-linecap="round" stroke-linejoin="round"/>
<path d="M336.679 558.486L311.059 529.747" stroke="#B76C4E" stroke-width="5" stroke-miterlimit="10" stroke-linecap="round" stroke-linejoin="round"/>
<path d="M311.901 559.29L336.004 528.742" stroke="#B76C4E" stroke-width="5" stroke-miterlimit="10" stroke-linecap="round" stroke-linejoin="round"/>
<path d="M1290.73 558.486L1265.11 529.747" stroke="#B76C4E" stroke-width="5" stroke-miterlimit="10" stroke-linecap="round" stroke-linejoin="round"/>
<path d="M1265.95 559.29L1290.05 528.742" stroke="#B76C4E" stroke-width="5" stroke-miterlimit="10" stroke-linecap="round" stroke-linejoin="round"/>
<path d="M23.8466 804.878L-1.77344 776.139" stroke="#B76C4E" stroke-width="5" stroke-miterlimit="10" stroke-linecap="round" stroke-linejoin="round"/>
<path d="M-0.931458 805.682L23.1716 775.134" stroke="#B76C4E" stroke-width="5" stroke-miterlimit="10" stroke-linecap="round" stroke-linejoin="round"/>
<path d="M977.895 804.878L952.275 776.139" stroke="#B76C4E" stroke-width="5" stroke-miterlimit="10" stroke-linecap="round" stroke-linejoin="round"/>
<path d="M953.117 805.682L977.22 775.134" stroke="#B76C4E" stroke-width="5" stroke-miterlimit="10" stroke-linecap="round" stroke-linejoin="round"/>
<path d="M12.7203 75.5518L-13.0684 46.6119" stroke="#B76C4E" stroke-width="5" stroke-miterlimit="10" stroke-linecap="round" stroke-linejoin="round"/>
<path d="M-12.2264 76.3557L11.8766 45.808" stroke="#B76C4E" stroke-width="5" stroke-miterlimit="10" stroke-linecap="round" stroke-linejoin="round"/>
<path d="M966.769 75.5518L940.98 46.6119" stroke="#B76C4E" stroke-width="5" stroke-miterlimit="10" stroke-linecap="round" stroke-linejoin="round"/>
<path d="M941.822 76.3557L965.926 45.808" stroke="#B76C4E" stroke-width="5" stroke-miterlimit="10" stroke-linecap="round" stroke-linejoin="round"/>
<path d="M926.952 116.751L901.332 88.0118" stroke="#B76C4E" stroke-width="5" stroke-miterlimit="10" stroke-linecap="round" stroke-linejoin="round"/>
<path d="M902.008 117.555L926.111 87.007" stroke="#B76C4E" stroke-width="5" stroke-miterlimit="10" stroke-linecap="round" stroke-linejoin="round"/>
<path d="M1881 116.751L1855.38 88.0118" stroke="#B76C4E" stroke-width="5" stroke-miterlimit="10" stroke-linecap="round" stroke-linejoin="round"/>
<path d="M1856.06 117.555L1880.16 87.007" stroke="#B76C4E" stroke-width="5" stroke-miterlimit="10" stroke-linecap="round" stroke-linejoin="round"/>
<path d="M623.724 273.107L597.936 244.368" stroke="#B76C4E" stroke-width="5" stroke-miterlimit="10" stroke-linecap="round" stroke-linejoin="round"/>
<path d="M598.777 273.91L622.88 243.363" stroke="#B76C4E" stroke-width="5" stroke-miterlimit="10" stroke-linecap="round" stroke-linejoin="round"/>
<path d="M1577.77 273.107L1551.98 244.368" stroke="#B76C4E" stroke-width="5" stroke-miterlimit="10" stroke-linecap="round" stroke-linejoin="round"/>
<path d="M1552.83 273.91L1576.93 243.363" stroke="#B76C4E" stroke-width="5" stroke-miterlimit="10" stroke-linecap="round" stroke-linejoin="round"/>
<path d="M748.96 614.357L723.34 585.618" stroke="#B76C4E" stroke-width="5" stroke-miterlimit="10" stroke-linecap="round" stroke-linejoin="round"/>
<path d="M724.182 615.362L748.285 584.613" stroke="#B76C4E" stroke-width="5" stroke-miterlimit="10" stroke-linecap="round" stroke-linejoin="round"/>
<path d="M1703.01 614.357L1677.39 585.618" stroke="#B76C4E" stroke-width="5" stroke-miterlimit="10" stroke-linecap="round" stroke-linejoin="round"/>
<path d="M1678.23 615.362L1702.33 584.613" stroke="#B76C4E" stroke-width="5" stroke-miterlimit="10" stroke-linecap="round" stroke-linejoin="round"/>
<path d="M729.07 892.301L703.281 863.562" stroke="#B76C4E" stroke-width="5" stroke-miterlimit="10" stroke-linecap="round" stroke-linejoin="round"/>
<path d="M704.123 893.306L728.226 862.557" stroke="#B76C4E" stroke-width="5" stroke-miterlimit="10" stroke-linecap="round" stroke-linejoin="round"/>
<path d="M1683.12 892.301L1657.33 863.562" stroke="#B76C4E" stroke-width="5" stroke-miterlimit="10" stroke-linecap="round" stroke-linejoin="round"/>
<path d="M1658.17 893.306L1682.28 862.557" stroke="#B76C4E" stroke-width="5" stroke-miterlimit="10" stroke-linecap="round" stroke-linejoin="round"/>
<path d="M498.083 163.206L480.432 127.212L463.115 163.206L445.631 199.398H480.599H515.567L498.083 163.206Z" stroke="#B76C4E" stroke-width="5" stroke-miterlimit="10" stroke-linecap="round" stroke-linejoin="round"/>
<path d="M1452.13 163.206L1434.48 127.212L1417.16 163.206L1399.68 199.398H1434.65H1469.61L1452.13 163.206Z" stroke="#B76C4E" stroke-width="5" stroke-miterlimit="10" stroke-linecap="round" stroke-linejoin="round"/>
<path d="M439.586 609.386L422.06 572.772L404.701 609.386L387.176 646.202H422.227H457.112L439.586 609.386Z" stroke="#B76C4E" stroke-width="5" stroke-miterlimit="10" stroke-linecap="round" stroke-linejoin="round"/>
<path d="M1393.63 609.386L1376.11 572.772L1358.75 609.386L1341.22 646.202H1376.28H1411.16L1393.63 609.386Z" stroke="#B76C4E" stroke-width="5" stroke-miterlimit="10" stroke-linecap="round" stroke-linejoin="round"/>
<path d="M642.91 746.391L625.166 709.676L607.421 746.391L589.676 783.106H625.166H660.655L642.91 746.391Z" stroke="#B76C4E" stroke-width="5" stroke-miterlimit="10" stroke-linecap="round" stroke-linejoin="round"/>
<path d="M1596.96 746.391L1579.21 709.676L1561.47 746.391L1543.72 783.106H1579.21H1614.7L1596.96 746.391Z" stroke="#B76C4E" stroke-width="5" stroke-miterlimit="10" stroke-linecap="round" stroke-linejoin="round"/>
<path d="M759.122 466.46L768.168 425.911L734.328 436.897L700.32 447.684L725.114 477.246L750.076 506.809L759.122 466.46Z" stroke="#B76C4E" stroke-width="5" stroke-miterlimit="10" stroke-linecap="round" stroke-linejoin="round"/>
<path d="M1713.17 466.46L1722.22 425.911L1688.38 436.897L1654.37 447.684L1679.16 477.246L1704.12 506.809L1713.17 466.46Z" stroke="#B76C4E" stroke-width="5" stroke-miterlimit="10" stroke-linecap="round" stroke-linejoin="round"/>
<path d="M177.718 -6.47998L186.764 -47.0287L152.756 -36.0426L118.916 -25.2562L143.71 4.30638L168.671 33.869L177.718 -6.47998Z" stroke="#B76C4E" stroke-width="5" stroke-miterlimit="10" stroke-linecap="round" stroke-linejoin="round"/>
<path d="M1131.77 -6.47998L1140.81 -47.0287L1106.81 -36.0426L1072.96 -25.2562L1097.76 4.30638L1122.72 33.869L1131.77 -6.47998Z" stroke="#B76C4E" stroke-width="5" stroke-miterlimit="10" stroke-linecap="round" stroke-linejoin="round"/>
<path d="M153.71 873.338L162.756 832.889L128.916 843.848L94.9082 854.608L119.87 884.098L144.663 913.787L153.71 873.338Z" stroke="#B76C4E" stroke-width="5" stroke-miterlimit="10" stroke-linecap="round" stroke-linejoin="round"/>
<path d="M1107.76 873.338L1116.81 832.889L1082.96 843.848L1048.96 854.608L1073.92 884.098L1098.71 913.787L1107.76 873.338Z" stroke="#B76C4E" stroke-width="5" stroke-miterlimit="10" stroke-linecap="round" stroke-linejoin="round"/>
<path d="M794.702 38.7968L825.579 17.5885L794.702 -3.41788L763.994 -24.6262V17.5885V60.0052L794.702 38.7968Z" stroke="#B76C4E" stroke-width="5" stroke-miterlimit="10" stroke-linecap="round" stroke-linejoin="round"/>
<path d="M1748.75 38.7968L1779.63 17.5885L1748.75 -3.41788L1718.04 -24.6262V17.5885V60.0052L1748.75 38.7968Z" stroke="#B76C4E" stroke-width="5" stroke-miterlimit="10" stroke-linecap="round" stroke-linejoin="round"/>
<path d="M152.755 460.76L183.632 439.602L152.755 418.444L122.047 397.286V439.602V481.918L152.755 460.76Z" stroke="#B76C4E" stroke-width="5" stroke-miterlimit="10" stroke-linecap="round" stroke-linejoin="round"/>
<path d="M1106.8 460.76L1137.68 439.602L1106.8 418.444L1076.1 397.286V439.602V481.918L1106.8 460.76Z" stroke="#B76C4E" stroke-width="5" stroke-miterlimit="10" stroke-linecap="round" stroke-linejoin="round"/>
<path d="M558.362 391.063C558.362 408.973 546.244 423.422 531.223 423.422C516.203 423.422 504.084 408.973 504.084 391.063C504.084 373.154 516.203 358.704 531.223 358.704C546.244 358.704 558.362 373.154 558.362 391.063Z" stroke="#B76C4E" stroke-width="5" stroke-miterlimit="10" stroke-linecap="round" stroke-linejoin="round"/>
<path d="M1512.41 391.063C1512.41 408.973 1500.29 423.422 1485.27 423.422C1470.25 423.422 1458.13 408.973 1458.13 391.063C1458.13 373.154 1470.25 358.704 1485.27 358.704C1500.29 358.704 1512.41 373.154 1512.41 391.063Z" stroke="#B76C4E" stroke-width="5" stroke-miterlimit="10" stroke-linecap="round" stroke-linejoin="round"/>
<path d="M422.665 34.4913C422.665 52.0563 410.546 66.2281 395.526 66.2281C380.505 66.2281 368.387 52.0563 368.387 34.4913C368.387 16.9263 380.505 2.75452 395.526 2.75452C410.546 2.75452 422.665 17.1259 422.665 34.4913Z" stroke="#B76C4E" stroke-width="5" stroke-miterlimit="10" stroke-linecap="round" stroke-linejoin="round"/>
<path d="M1376.71 34.4913C1376.71 52.0563 1364.6 66.2281 1349.57 66.2281C1334.55 66.2281 1322.44 52.0563 1322.44 34.4913C1322.44 16.9263 1334.55 2.75452 1349.57 2.75452C1364.6 2.75452 1376.71 17.1259 1376.71 34.4913Z" stroke="#B76C4E" stroke-width="5" stroke-miterlimit="10" stroke-linecap="round" stroke-linejoin="round"/>
<path d="M439.367 977.882C439.367 995.447 427.482 1009.62 412.75 1009.62C398.019 1009.62 386.133 995.447 386.133 977.882C386.133 960.317 398.019 946.146 412.75 946.146C427.314 946.146 439.367 960.317 439.367 977.882Z" stroke="#B76C4E" stroke-width="5" stroke-miterlimit="10" stroke-linecap="round" stroke-linejoin="round"/>
<path d="M1393.42 977.882C1393.42 995.447 1381.53 1009.62 1366.8 1009.62C1352.07 1009.62 1340.18 995.447 1340.18 977.882C1340.18 960.317 1352.07 946.146 1366.8 946.146C1381.36 946.146 1393.42 960.317 1393.42 977.882Z" stroke="#B76C4E" stroke-width="5" stroke-miterlimit="10" stroke-linecap="round" stroke-linejoin="round"/>
<path d="M511.391 929.966C511.391 912.745 523.276 898.852 538.008 898.852C552.74 898.852 564.625 912.745 564.625 929.966" stroke="#B76C4E" stroke-width="5" stroke-miterlimit="10" stroke-linecap="round" stroke-linejoin="round"/>
<path d="M1465.44 929.966C1465.44 912.745 1477.33 898.852 1492.06 898.852C1506.79 898.852 1518.67 912.745 1518.67 929.966" stroke="#B76C4E" stroke-width="5" stroke-miterlimit="10" stroke-linecap="round" stroke-linejoin="round"/>
<path d="M297.408 439.602C297.408 421.692 309.294 407.243 324.026 407.243C338.757 407.243 350.643 421.692 350.643 439.602" stroke="#B76C4E" stroke-width="5" stroke-miterlimit="10" stroke-linecap="round" stroke-linejoin="round"/>
<path d="M1251.46 439.602C1251.46 421.692 1263.34 407.243 1278.07 407.243C1292.81 407.243 1304.69 421.692 1304.69 439.602" stroke="#B76C4E" stroke-width="5" stroke-miterlimit="10" stroke-linecap="round" stroke-linejoin="round"/>
<path d="M15.5781 179.485C15.5781 161.575 27.5391 147.126 42.1954 147.126C56.8518 147.126 68.8128 161.575 68.8128 179.485" stroke="#B76C4E" stroke-width="5" stroke-miterlimit="10" stroke-linecap="round" stroke-linejoin="round"/>
<path d="M969.625 179.485C969.625 161.575 981.586 147.126 996.242 147.126C1010.9 147.126 1022.86 161.575 1022.86 179.485" stroke="#B76C4E" stroke-width="5" stroke-miterlimit="10" stroke-linecap="round" stroke-linejoin="round"/>
<path d="M690.927 231.757C676.485 231.757 664.832 217.496 664.832 200.02C664.832 182.545 676.485 168.284 690.927 168.284" stroke="#B76C4E" stroke-width="5" stroke-miterlimit="10" stroke-linecap="round" stroke-linejoin="round"/>
<path d="M1644.98 231.757C1630.53 231.757 1618.88 217.496 1618.88 200.02C1618.88 182.545 1630.53 168.284 1644.98 168.284" stroke="#B76C4E" stroke-width="5" stroke-miterlimit="10" stroke-linecap="round" stroke-linejoin="round"/>
<path d="M44.8044 978.505C30.3617 978.505 18.709 963.964 18.709 946.146C18.709 928.328 30.3617 913.787 44.8044 913.787" stroke="#B76C4E" stroke-width="5" stroke-miterlimit="10" stroke-linecap="round" stroke-linejoin="round"/>
<path d="M998.853 978.505C984.41 978.505 972.758 963.964 972.758 946.146C972.758 928.328 984.41 913.787 998.853 913.787" stroke="#B76C4E" stroke-width="5" stroke-miterlimit="10" stroke-linecap="round" stroke-linejoin="round"/>
<path d="M58.3733 641.846C58.3733 659.411 46.4876 673.583 31.756 673.583C17.0244 673.583 5.13867 659.411 5.13867 641.846C5.13867 624.281 17.0244 610.109 31.756 610.109C46.4876 610.109 58.3733 624.281 58.3733 641.846Z" stroke="#B76C4E" stroke-width="5" stroke-miterlimit="10" stroke-linecap="round" stroke-linejoin="round"/>
<path d="M1012.42 641.846C1012.42 659.411 1000.54 673.583 985.805 673.583C971.073 673.583 959.188 659.411 959.188 641.846C959.188 624.281 971.073 610.109 985.805 610.109C1000.54 610.109 1012.42 624.281 1012.42 641.846Z" stroke="#B76C4E" stroke-width="5" stroke-miterlimit="10" stroke-linecap="round" stroke-linejoin="round"/>
<path d="M886.12 677.939C886.12 695.504 874.001 709.675 858.981 709.675C843.961 709.675 831.842 695.504 831.842 677.939C831.842 660.374 843.961 646.202 858.981 646.202C874.001 646.202 886.12 660.374 886.12 677.939Z" stroke="#B76C4E" stroke-width="5" stroke-miterlimit="10" stroke-linecap="round" stroke-linejoin="round"/>
<path d="M1840.17 677.939C1840.17 695.504 1828.05 709.675 1813.03 709.675C1798.01 709.675 1785.89 695.504 1785.89 677.939C1785.89 660.374 1798.01 646.202 1813.03 646.202C1828.05 646.202 1840.17 660.374 1840.17 677.939Z" stroke="#B76C4E" stroke-width="5" stroke-miterlimit="10" stroke-linecap="round" stroke-linejoin="round"/>
<path d="M865.244 168.284H812.01V231.757H865.244V168.284Z" stroke="#B76C4E" stroke-width="5" stroke-miterlimit="10" stroke-linecap="round" stroke-linejoin="round"/>
<path d="M1819.29 168.284H1766.06V231.757H1819.29V168.284Z" stroke="#B76C4E" stroke-width="5" stroke-miterlimit="10" stroke-linecap="round" stroke-linejoin="round"/>
<path d="M261.918 199.398H208.684V264.116H261.918V199.398Z" stroke="#B76C4E" stroke-width="5" stroke-miterlimit="10" stroke-linecap="round" stroke-linejoin="round"/>
<path d="M1215.97 199.398H1162.73V264.116H1215.97V199.398Z" stroke="#B76C4E" stroke-width="5" stroke-miterlimit="10" stroke-linecap="round" stroke-linejoin="round"/>
<path d="M258.787 606.375H205.553V669.849H258.787V606.375Z" stroke="#B76C4E" stroke-width="5" stroke-miterlimit="10" stroke-linecap="round" stroke-linejoin="round"/>
<path d="M1212.84 606.375H1159.6V669.849H1212.84V606.375Z" stroke="#B76C4E" stroke-width="5" stroke-miterlimit="10" stroke-linecap="round" stroke-linejoin="round"/>
<path d="M865.244 913.787H812.01V978.505H865.244V913.787Z" stroke="#B76C4E" stroke-width="5" stroke-miterlimit="10" stroke-linecap="round" stroke-linejoin="round"/>
<path d="M1819.29 913.787H1766.06V978.505H1819.29V913.787Z" stroke="#B76C4E" stroke-width="5" stroke-miterlimit="10" stroke-linecap="round" stroke-linejoin="round"/>
<path d="M513.659 544.016C502.029 544.016 504.051 519.297 489.219 519.297" stroke="#B76C4E" stroke-width="5" stroke-miterlimit="10" stroke-linecap="round" stroke-linejoin="round"/>
<path d="M562.71 544.016C551.08 544.016 553.102 519.297 538.27 519.297" stroke="#B76C4E" stroke-width="5" stroke-miterlimit="10" stroke-linecap="round" stroke-linejoin="round"/>
<path d="M513.66 544.016C525.29 544.016 523.268 519.297 538.1 519.297" stroke="#B76C4E" stroke-width="5" stroke-miterlimit="10" stroke-linecap="round" stroke-linejoin="round"/>
<path d="M562.709 544.016C574.339 544.016 572.317 519.297 587.149 519.297" stroke="#B76C4E" stroke-width="5" stroke-miterlimit="10" stroke-linecap="round" stroke-linejoin="round"/>
<path d="M1467.71 544.016C1456.08 544.016 1458.1 519.297 1443.27 519.297" stroke="#B76C4E" stroke-width="5" stroke-miterlimit="10" stroke-linecap="round" stroke-linejoin="round"/>
<path d="M1516.76 544.016C1505.13 544.016 1507.15 519.297 1492.32 519.297" stroke="#B76C4E" stroke-width="5" stroke-miterlimit="10" stroke-linecap="round" stroke-linejoin="round"/>
<path d="M1467.71 544.016C1479.34 544.016 1477.32 519.297 1492.15 519.297" stroke="#B76C4E" stroke-width="5" stroke-miterlimit="10" stroke-linecap="round" stroke-linejoin="round"/>
<path d="M1516.76 544.016C1528.39 544.016 1526.37 519.297 1541.2 519.297" stroke="#B76C4E" stroke-width="5" stroke-miterlimit="10" stroke-linecap="round" stroke-linejoin="round"/>
<path d="M653.223 1002.83C641.593 1002.83 643.616 978.115 628.783 978.115" stroke="#B76C4E" stroke-width="5" stroke-miterlimit="10" stroke-linecap="round" stroke-linejoin="round"/>
<path d="M702.272 1002.83C690.642 1002.83 692.665 978.115 677.832 978.115" stroke="#B76C4E" stroke-width="5" stroke-miterlimit="10" stroke-linecap="round" stroke-linejoin="round"/>
<path d="M653.223 1002.83C664.853 1002.83 662.83 978.115 677.663 978.115" stroke="#B76C4E" stroke-width="5" stroke-miterlimit="10" stroke-linecap="round" stroke-linejoin="round"/>
<path d="M702.271 1002.83C713.902 1002.83 711.879 978.115 726.712 978.115" stroke="#B76C4E" stroke-width="5" stroke-miterlimit="10" stroke-linecap="round" stroke-linejoin="round"/>
<path d="M1607.27 1002.83C1595.64 1002.83 1597.66 978.115 1582.83 978.115" stroke="#B76C4E" stroke-width="5" stroke-miterlimit="10" stroke-linecap="round" stroke-linejoin="round"/>
<path d="M1656.32 1002.83C1644.69 1002.83 1646.71 978.115 1631.88 978.115" stroke="#B76C4E" stroke-width="5" stroke-miterlimit="10" stroke-linecap="round" stroke-linejoin="round"/>
<path d="M1607.27 1002.83C1618.9 1002.83 1616.88 978.115 1631.71 978.115" stroke="#B76C4E" stroke-width="5" stroke-miterlimit="10" stroke-linecap="round" stroke-linejoin="round"/>
<path d="M1656.32 1002.83C1667.95 1002.83 1665.93 978.115 1680.76 978.115" stroke="#B76C4E" stroke-width="5" stroke-miterlimit="10" stroke-linecap="round" stroke-linejoin="round"/>
<path d="M720.137 341.437C708.507 341.437 710.53 316.718 695.697 316.718" stroke="#B76C4E" stroke-width="5" stroke-miterlimit="10" stroke-linecap="round" stroke-linejoin="round"/>
<path d="M769.018 341.437C757.388 341.437 759.411 316.718 744.578 316.718" stroke="#B76C4E" stroke-width="5" stroke-miterlimit="10" stroke-linecap="round" stroke-linejoin="round"/>
<path d="M720.137 341.437C731.767 341.437 729.744 316.718 744.577 316.718" stroke="#B76C4E" stroke-width="5" stroke-miterlimit="10" stroke-linecap="round" stroke-linejoin="round"/>
<path d="M769.017 341.437C780.648 341.437 778.625 316.718 793.458 316.718" stroke="#B76C4E" stroke-width="5" stroke-miterlimit="10" stroke-linecap="round" stroke-linejoin="round"/>
<path d="M1674.19 341.437C1662.56 341.437 1664.58 316.718 1649.75 316.718" stroke="#B76C4E" stroke-width="5" stroke-miterlimit="10" stroke-linecap="round" stroke-linejoin="round"/>
<path d="M1723.07 341.437C1711.44 341.437 1713.46 316.718 1698.63 316.718" stroke="#B76C4E" stroke-width="5" stroke-miterlimit="10" stroke-linecap="round" stroke-linejoin="round"/>
<path d="M1674.19 341.437C1685.82 341.437 1683.79 316.718 1698.63 316.718" stroke="#B76C4E" stroke-width="5" stroke-miterlimit="10" stroke-linecap="round" stroke-linejoin="round"/>
<path d="M1723.07 341.437C1734.7 341.437 1732.67 316.718 1747.51 316.718" stroke="#B76C4E" stroke-width="5" stroke-miterlimit="10" stroke-linecap="round" stroke-linejoin="round"/>
<path d="M38.6785 311.693C27.0483 311.693 29.0709 286.974 14.2383 286.974" stroke="#B76C4E" stroke-width="5" stroke-miterlimit="10" stroke-linecap="round" stroke-linejoin="round"/>
<path d="M87.5574 311.693C75.9272 311.693 77.9499 286.974 63.1172 286.974" stroke="#B76C4E" stroke-width="5" stroke-miterlimit="10" stroke-linecap="round" stroke-linejoin="round"/>
<path d="M38.678 311.693C50.3081 311.693 48.2855 286.974 63.1182 286.974" stroke="#B76C4E" stroke-width="5" stroke-miterlimit="10" stroke-linecap="round" stroke-linejoin="round"/>
<path d="M87.5586 311.693C99.1888 311.693 97.1661 286.974 111.999 286.974" stroke="#B76C4E" stroke-width="5" stroke-miterlimit="10" stroke-linecap="round" stroke-linejoin="round"/>
<path d="M992.727 311.693C981.097 311.693 983.12 286.974 968.287 286.974" stroke="#B76C4E" stroke-width="5" stroke-miterlimit="10" stroke-linecap="round" stroke-linejoin="round"/>
<path d="M1041.61 311.693C1029.98 311.693 1032 286.974 1017.17 286.974" stroke="#B76C4E" stroke-width="5" stroke-miterlimit="10" stroke-linecap="round" stroke-linejoin="round"/>
<path d="M992.727 311.693C1004.36 311.693 1002.33 286.974 1017.17 286.974" stroke="#B76C4E" stroke-width="5" stroke-miterlimit="10" stroke-linecap="round" stroke-linejoin="round"/>
<path d="M1041.61 311.693C1053.24 311.693 1051.21 286.974 1066.05 286.974" stroke="#B76C4E" stroke-width="5" stroke-miterlimit="10" stroke-linecap="round" stroke-linejoin="round"/>
<path d="M517.705 -18.1013C517.705 -4.23427 496.973 -6.64593 496.973 11.0396" stroke="#B76C4E" stroke-width="5" stroke-miterlimit="10" stroke-linecap="round" stroke-linejoin="round"/>
<path d="M1471.75 -18.1013C1471.75 -4.23427 1451.02 -6.64593 1451.02 11.0396" stroke="#B76C4E" stroke-width="5" stroke-miterlimit="10" stroke-linecap="round" stroke-linejoin="round"/>
<path d="M367.523 287.576C367.523 301.443 346.791 299.032 346.791 316.717" stroke="#B76C4E" stroke-width="5" stroke-miterlimit="10" stroke-linecap="round" stroke-linejoin="round"/>
<path d="M367.523 229.094C367.523 242.961 346.791 240.549 346.791 258.235" stroke="#B76C4E" stroke-width="5" stroke-miterlimit="10" stroke-linecap="round" stroke-linejoin="round"/>
<path d="M367.523 287.576C367.523 273.709 346.791 276.121 346.791 258.436" stroke="#B76C4E" stroke-width="5" stroke-miterlimit="10" stroke-linecap="round" stroke-linejoin="round"/>
<path d="M367.523 229.094C367.523 215.227 346.791 217.638 346.791 199.953" stroke="#B76C4E" stroke-width="5" stroke-miterlimit="10" stroke-linecap="round" stroke-linejoin="round"/>
<path d="M1321.57 287.576C1321.57 301.443 1300.84 299.032 1300.84 316.717" stroke="#B76C4E" stroke-width="5" stroke-miterlimit="10" stroke-linecap="round" stroke-linejoin="round"/>
<path d="M1321.57 229.094C1321.57 242.961 1300.84 240.549 1300.84 258.235" stroke="#B76C4E" stroke-width="5" stroke-miterlimit="10" stroke-linecap="round" stroke-linejoin="round"/>
<path d="M1321.57 287.576C1321.57 273.709 1300.84 276.121 1300.84 258.436" stroke="#B76C4E" stroke-width="5" stroke-miterlimit="10" stroke-linecap="round" stroke-linejoin="round"/>
<path d="M1321.57 229.094C1321.57 215.227 1300.84 217.638 1300.84 199.953" stroke="#B76C4E" stroke-width="5" stroke-miterlimit="10" stroke-linecap="round" stroke-linejoin="round"/>
<path d="M774.746 775.737C774.746 789.604 754.014 787.192 754.014 804.878" stroke="#B76C4E" stroke-width="5" stroke-miterlimit="10" stroke-linecap="round" stroke-linejoin="round"/>
<path d="M774.746 717.455C774.746 731.322 754.014 728.91 754.014 746.596" stroke="#B76C4E" stroke-width="5" stroke-miterlimit="10" stroke-linecap="round" stroke-linejoin="round"/>
<path d="M774.746 775.737C774.746 761.87 754.014 764.281 754.014 746.596" stroke="#B76C4E" stroke-width="5" stroke-miterlimit="10" stroke-linecap="round" stroke-linejoin="round"/>
<path d="M774.746 717.455C774.746 703.588 754.014 706 754.014 688.314" stroke="#B76C4E" stroke-width="5" stroke-miterlimit="10" stroke-linecap="round" stroke-linejoin="round"/>
<path d="M1728.79 775.737C1728.79 789.604 1708.06 787.192 1708.06 804.878" stroke="#B76C4E" stroke-width="5" stroke-miterlimit="10" stroke-linecap="round" stroke-linejoin="round"/>
<path d="M1728.79 717.455C1728.79 731.322 1708.06 728.91 1708.06 746.596" stroke="#B76C4E" stroke-width="5" stroke-miterlimit="10" stroke-linecap="round" stroke-linejoin="round"/>
<path d="M1728.79 775.737C1728.79 761.87 1708.06 764.281 1708.06 746.596" stroke="#B76C4E" stroke-width="5" stroke-miterlimit="10" stroke-linecap="round" stroke-linejoin="round"/>
<path d="M1728.79 717.455C1728.79 703.588 1708.06 706 1708.06 688.314" stroke="#B76C4E" stroke-width="5" stroke-miterlimit="10" stroke-linecap="round" stroke-linejoin="round"/>
<path d="M269.427 821.96C269.427 835.827 248.695 833.416 248.695 851.101" stroke="#B76C4E" stroke-width="5" stroke-miterlimit="10" stroke-linecap="round" stroke-linejoin="round"/>
<path d="M269.427 763.478C269.427 777.345 248.695 774.933 248.695 792.618" stroke="#B76C4E" stroke-width="5" stroke-miterlimit="10" stroke-linecap="round" stroke-linejoin="round"/>
<path d="M269.427 821.96C269.427 808.093 248.695 810.505 248.695 792.819" stroke="#B76C4E" stroke-width="5" stroke-miterlimit="10" stroke-linecap="round" stroke-linejoin="round"/>
<path d="M269.428 763.478C269.428 749.611 248.695 752.022 248.695 734.337" stroke="#B76C4E" stroke-width="5" stroke-miterlimit="10" stroke-linecap="round" stroke-linejoin="round"/>
<path d="M1223.48 821.96C1223.48 835.827 1202.74 833.416 1202.74 851.101" stroke="#B76C4E" stroke-width="5" stroke-miterlimit="10" stroke-linecap="round" stroke-linejoin="round"/>
<path d="M1223.48 763.478C1223.48 777.345 1202.74 774.933 1202.74 792.618" stroke="#B76C4E" stroke-width="5" stroke-miterlimit="10" stroke-linecap="round" stroke-linejoin="round"/>
<path d="M1223.48 821.96C1223.48 808.093 1202.74 810.505 1202.74 792.819" stroke="#B76C4E" stroke-width="5" stroke-miterlimit="10" stroke-linecap="round" stroke-linejoin="round"/>
<path d="M1223.48 763.478C1223.48 749.611 1202.74 752.022 1202.74 734.337" stroke="#B76C4E" stroke-width="5" stroke-miterlimit="10" stroke-linecap="round" stroke-linejoin="round"/>
<path d="M571.932 610.109H632.473" stroke="#B76C4E" stroke-width="5" stroke-miterlimit="10" stroke-linecap="round" stroke-linejoin="round"/>
<path d="M1525.98 610.109H1586.52" stroke="#B76C4E" stroke-width="5" stroke-miterlimit="10" stroke-linecap="round" stroke-linejoin="round"/>
<path d="M-22 401.02H38.5414" stroke="#B76C4E" stroke-width="5" stroke-miterlimit="10" stroke-linecap="round" stroke-linejoin="round"/>
<path d="M932.049 401.02H992.59" stroke="#B76C4E" stroke-width="5" stroke-miterlimit="10" stroke-linecap="round" stroke-linejoin="round"/>
<path d="M577.15 66.228H637.692" stroke="#B76C4E" stroke-width="5" stroke-miterlimit="10" stroke-linecap="round" stroke-linejoin="round"/>
<path d="M1531.2 66.228H1591.74" stroke="#B76C4E" stroke-width="5" stroke-miterlimit="10" stroke-linecap="round" stroke-linejoin="round"/>
<path d="M219.121 978.505H279.662" stroke="#B76C4E" stroke-width="5" stroke-miterlimit="10" stroke-linecap="round" stroke-linejoin="round"/>
<path d="M1173.17 978.505H1233.71" stroke="#B76C4E" stroke-width="5" stroke-miterlimit="10" stroke-linecap="round" stroke-linejoin="round"/>
<path d="M374.65 839.112L417.447 788.084" stroke="#B76C4E" stroke-width="5" stroke-miterlimit="10" stroke-linecap="round" stroke-linejoin="round"/>
<path d="M1328.7 839.112L1371.5 788.084" stroke="#B76C4E" stroke-width="5" stroke-miterlimit="10" stroke-linecap="round" stroke-linejoin="round"/>
<path d="M845.412 476.939L888.209 425.911" stroke="#B76C4E" stroke-width="5" stroke-miterlimit="10" stroke-linecap="round" stroke-linejoin="round"/>
<path d="M1799.46 476.939L1842.26 425.911" stroke="#B76C4E" stroke-width="5" stroke-miterlimit="10" stroke-linecap="round" stroke-linejoin="round"/>
<g opacity="0.3">
<path opacity="0.3" d="M536.75 190.306L519.052 153.729L501.354 190.306L483.656 226.883H519.052L554.449 226.682L536.75 190.306Z" stroke="#B76C4E" stroke-miterlimit="10"/>
<path opacity="0.3" d="M478.096 636.463L460.397 599.887L442.868 636.463L425.17 673.04H460.566L495.794 672.839L478.096 636.463Z" stroke="#B76C4E" stroke-miterlimit="10"/>
<path opacity="0.3" d="M681.034 773.526L663.336 736.949L645.638 773.526L627.939 809.902H663.336H698.732L681.034 773.526Z" stroke="#B76C4E" stroke-miterlimit="10"/>
<path opacity="0.3" d="M797.672 493.171L806.774 452.574L772.726 463.427L738.51 474.48L763.624 504.224L788.57 533.968L797.672 493.171Z" stroke="#B76C4E" stroke-miterlimit="10"/>
<path opacity="0.3" d="M216.332 20.2843L225.434 -20.312L191.386 -9.45954L157.17 1.5939L182.116 31.3377L207.23 61.0815L216.332 20.2843Z" stroke="#B76C4E" stroke-miterlimit="10"/>
<path opacity="0.3" d="M192.059 900.54L201.16 859.743L167.113 870.595L132.896 881.649L158.011 911.393L182.957 941.136L192.059 900.54Z" stroke="#B76C4E" stroke-miterlimit="10"/>
<path opacity="0.3" d="M833.571 65.905L864.079 44.8029L833.571 23.7009L802.895 2.59888V44.8029V87.007L833.571 65.905Z" stroke="#B76C4E" stroke-miterlimit="10"/>
<path opacity="0.3" d="M191.386 486.94L221.894 465.838L191.217 444.937L160.709 423.835V466.039V508.042L191.386 486.94Z" stroke="#B76C4E" stroke-miterlimit="10"/>
<path opacity="0.3" d="M596.418 418.007C596.418 435.693 584.451 449.962 569.618 449.962C554.786 449.962 542.818 435.693 542.818 418.007C542.818 400.322 554.786 386.053 569.618 386.053C584.451 386.053 596.418 400.322 596.418 418.007Z" stroke="#B76C4E" stroke-miterlimit="10"/>
<path opacity="0.3" d="M460.903 61.0816C460.903 78.7671 448.935 93.0361 434.103 93.0361C419.27 93.0361 407.303 78.7671 407.303 61.0816C407.303 43.3961 419.27 29.1271 434.103 29.1271C448.935 29.1271 460.903 43.3961 460.903 61.0816Z" stroke="#B76C4E" stroke-miterlimit="10"/>
<path opacity="0.3" d="M478.094 1005.05C478.094 1022.73 466.127 1037 451.294 1037C436.461 1037 424.494 1022.73 424.494 1005.05C424.494 987.36 436.461 973.091 451.294 973.091C465.958 972.89 478.094 987.36 478.094 1005.05Z" stroke="#B76C4E" stroke-miterlimit="10"/>
<path opacity="0.3" d="M549.73 957.214C549.73 939.529 561.698 925.26 576.53 925.26C591.363 925.26 603.33 939.529 603.33 957.214" stroke="#B76C4E" stroke-miterlimit="10"/>
<path opacity="0.3" d="M335.668 466.039C335.668 448.354 347.635 434.085 362.468 434.085C377.301 434.085 389.268 448.354 389.268 466.039" stroke="#B76C4E" stroke-miterlimit="10"/>
<path opacity="0.3" d="M53.5098 206.384C53.5098 188.699 65.477 174.43 80.1411 174.43C94.8053 174.43 106.773 188.699 106.773 206.384" stroke="#B76C4E" stroke-miterlimit="10"/>
<path opacity="0.3" d="M729.573 258.637C714.741 258.637 702.773 244.368 702.773 226.883C702.773 209.399 714.741 195.13 729.573 195.13" stroke="#B76C4E" stroke-miterlimit="10"/>
<path opacity="0.3" d="M83.6788 1004.84C68.8462 1004.84 56.8789 990.575 56.8789 973.091C56.8789 955.606 68.8462 941.337 83.6788 941.337" stroke="#B76C4E" stroke-miterlimit="10"/>
<path opacity="0.3" d="M97.1643 668.418C97.1643 686.103 85.197 700.372 70.3644 700.372C55.5317 700.372 43.5645 686.103 43.5645 668.418C43.5645 650.732 55.5317 636.463 70.3644 636.463C85.197 636.463 97.1643 650.732 97.1643 668.418Z" stroke="#B76C4E" stroke-miterlimit="10"/>
<path opacity="0.3" d="M924.254 704.995C924.254 722.68 912.287 736.949 897.454 736.949C882.621 736.949 870.654 722.68 870.654 704.995C870.654 687.309 882.621 673.04 897.454 673.04C912.287 673.04 924.254 687.309 924.254 704.995Z" stroke="#B76C4E" stroke-miterlimit="10"/>
<path opacity="0.3" d="M903.521 194.929H850.09V258.637H903.521V194.929Z" stroke="#B76C4E" stroke-miterlimit="10"/>
<path opacity="0.3" d="M300.269 226.883H246.838V290.591H300.269V226.883Z" stroke="#B76C4E" stroke-miterlimit="10"/>
<path opacity="0.3" d="M297.574 633.047H244.143V696.755H297.574V633.047Z" stroke="#B76C4E" stroke-miterlimit="10"/>
<path opacity="0.3" d="M903.521 941.136H850.09V1004.84H903.521V941.136Z" stroke="#B76C4E" stroke-miterlimit="10"/>
<g opacity="0.3">
<path opacity="0.3" d="M552.091 570.947C540.46 570.947 542.483 546.227 527.65 546.227" stroke="#B76C4E" stroke-miterlimit="10"/>
<path opacity="0.3" d="M601.139 570.947C589.509 570.947 591.532 546.227 576.699 546.227" stroke="#B76C4E" stroke-miterlimit="10"/>
<path opacity="0.3" d="M552.092 570.947C563.722 570.947 561.699 546.227 576.532 546.227" stroke="#B76C4E" stroke-miterlimit="10"/>
<path opacity="0.3" d="M601.139 570.947C612.769 570.947 610.746 546.227 625.579 546.227" stroke="#B76C4E" stroke-miterlimit="10"/>
</g>
<g opacity="0.3">
<path opacity="0.3" d="M691.651 1029.56C680.021 1029.56 682.044 1004.84 667.211 1004.84" stroke="#B76C4E" stroke-miterlimit="10"/>
<path opacity="0.3" d="M740.7 1029.56C729.07 1029.56 731.092 1004.84 716.26 1004.84" stroke="#B76C4E" stroke-miterlimit="10"/>
<path opacity="0.3" d="M691.651 1029.56C703.281 1029.56 701.258 1004.84 716.091 1004.84" stroke="#B76C4E" stroke-miterlimit="10"/>
<path opacity="0.3" d="M740.699 1029.56C752.329 1029.56 750.307 1004.84 765.139 1004.84" stroke="#B76C4E" stroke-miterlimit="10"/>
</g>
<g opacity="0.3">
<path opacity="0.3" d="M758.567 368.367C746.937 368.367 748.96 343.648 734.127 343.648" stroke="#B76C4E" stroke-miterlimit="10"/>
<path opacity="0.3" d="M807.448 368.367C795.818 368.367 797.84 343.648 783.008 343.648" stroke="#B76C4E" stroke-miterlimit="10"/>
<path opacity="0.3" d="M758.566 368.367C770.197 368.367 768.174 343.648 783.007 343.648" stroke="#B76C4E" stroke-miterlimit="10"/>
<path opacity="0.3" d="M807.447 368.367C819.077 368.367 817.055 343.648 831.887 343.648" stroke="#B76C4E" stroke-miterlimit="10"/>
</g>
<g opacity="0.3">
<path opacity="0.3" d="M77.1062 338.624C65.476 338.624 67.4987 313.904 52.666 313.904" stroke="#B76C4E" stroke-miterlimit="10"/>
<path opacity="0.3" d="M126.153 338.624C114.523 338.624 116.545 313.904 101.713 313.904" stroke="#B76C4E" stroke-miterlimit="10"/>
<path opacity="0.3" d="M77.1055 338.624C88.7357 338.624 86.7131 313.904 101.546 313.904" stroke="#B76C4E" stroke-miterlimit="10"/>
<path opacity="0.3" d="M126.152 338.624C137.783 338.624 135.76 313.904 150.593 313.904" stroke="#B76C4E" stroke-miterlimit="10"/>
</g>
<g opacity="0.3">
<path opacity="0.3" d="M556.134 8.82886C556.134 22.6959 535.402 20.2842 535.402 37.9697" stroke="#B76C4E" stroke-miterlimit="10"/>
<path opacity="0.3" d="M556.134 8.82888C556.134 -5.03817 535.402 -2.62651 535.402 -20.312" stroke="#B76C4E" stroke-miterlimit="10"/>
</g>
<g opacity="0.3">
<path opacity="0.3" d="M405.955 314.507C405.955 328.374 385.223 325.962 385.223 343.648" stroke="#B76C4E" stroke-miterlimit="10"/>
<path opacity="0.3" d="M405.955 256.024C405.955 269.891 385.223 267.479 385.223 285.165" stroke="#B76C4E" stroke-miterlimit="10"/>
<path opacity="0.3" d="M405.955 314.507C405.955 300.64 385.223 303.051 385.223 285.366" stroke="#B76C4E" stroke-miterlimit="10"/>
<path opacity="0.3" d="M405.955 256.024C405.955 242.157 385.223 244.569 385.223 226.883" stroke="#B76C4E" stroke-miterlimit="10"/>
</g>
<g opacity="0.3">
<path opacity="0.3" d="M813.177 802.667C813.177 816.534 792.445 814.122 792.445 831.808" stroke="#B76C4E" stroke-miterlimit="10"/>
<path opacity="0.3" d="M813.177 744.184C813.177 758.051 792.445 755.64 792.445 773.325" stroke="#B76C4E" stroke-miterlimit="10"/>
<path opacity="0.3" d="M813.177 802.667C813.177 788.8 792.445 791.212 792.445 773.526" stroke="#B76C4E" stroke-miterlimit="10"/>
<path opacity="0.3" d="M813.177 744.184C813.177 730.317 792.445 732.729 792.445 715.043" stroke="#B76C4E" stroke-miterlimit="10"/>
</g>
<g opacity="0.3">
<path opacity="0.3" d="M307.855 848.689C307.855 862.556 287.123 860.145 287.123 877.83" stroke="#B76C4E" stroke-miterlimit="10"/>
<path opacity="0.3" d="M307.855 790.207C307.855 804.074 287.123 801.662 287.123 819.347" stroke="#B76C4E" stroke-miterlimit="10"/>
<path opacity="0.3" d="M307.855 848.689C307.855 834.822 287.123 837.234 287.123 819.548" stroke="#B76C4E" stroke-miterlimit="10"/>
<path opacity="0.3" d="M307.855 790.207C307.855 776.34 287.123 778.751 287.123 761.066" stroke="#B76C4E" stroke-miterlimit="10"/>
</g>
<path opacity="0.3" d="M610.744 636.463H671.255" stroke="#B76C4E" stroke-miterlimit="10"/>
<path opacity="0.3" d="M16.4277 428.056H76.9383" stroke="#B76C4E" stroke-miterlimit="10"/>
<path opacity="0.3" d="M615.297 93.0361H675.807" stroke="#B76C4E" stroke-miterlimit="10"/>
<path opacity="0.3" d="M257.457 1004.84H317.968" stroke="#B76C4E" stroke-miterlimit="10"/>
<path opacity="0.3" d="M412.695 865.571L455.508 814.524" stroke="#B76C4E" stroke-miterlimit="10"/>
<path opacity="0.3" d="M883.801 503.822L926.613 452.976" stroke="#B76C4E" stroke-miterlimit="10"/>
</g>
<g opacity="0.3">
<path opacity="0.3" d="M1490.8 190.306L1473.1 153.729L1455.4 190.306L1437.71 226.883H1473.1L1508.5 226.682L1490.8 190.306Z" stroke="#B76C4E" stroke-miterlimit="10"/>
<path opacity="0.3" d="M1432.14 636.463L1414.45 599.887L1396.92 636.463L1379.22 673.04H1414.61L1449.84 672.839L1432.14 636.463Z" stroke="#B76C4E" stroke-miterlimit="10"/>
<path opacity="0.3" d="M1635.08 773.526L1617.38 736.949L1599.69 773.526L1581.99 809.902H1617.38H1652.78L1635.08 773.526Z" stroke="#B76C4E" stroke-miterlimit="10"/>
<path opacity="0.3" d="M1751.72 493.171L1760.82 452.574L1726.77 463.427L1692.56 474.48L1717.67 504.224L1742.62 533.968L1751.72 493.171Z" stroke="#B76C4E" stroke-miterlimit="10"/>
<path opacity="0.3" d="M1170.38 20.2843L1179.48 -20.312L1145.43 -9.45954L1111.22 1.5939L1136.16 31.3377L1161.28 61.0815L1170.38 20.2843Z" stroke="#B76C4E" stroke-miterlimit="10"/>
<path opacity="0.3" d="M1146.11 900.54L1155.21 859.743L1121.16 870.595L1086.95 881.649L1112.06 911.393L1137.01 941.136L1146.11 900.54Z" stroke="#B76C4E" stroke-miterlimit="10"/>
<path opacity="0.3" d="M1787.62 65.905L1818.13 44.8029L1787.62 23.7009L1756.94 2.59888V44.8029V87.007L1787.62 65.905Z" stroke="#B76C4E" stroke-miterlimit="10"/>
<path opacity="0.3" d="M1145.43 486.94L1175.94 465.838L1145.27 444.937L1114.76 423.835V466.039V508.042L1145.43 486.94Z" stroke="#B76C4E" stroke-miterlimit="10"/>
<path opacity="0.3" d="M1550.47 418.007C1550.47 435.693 1538.5 449.962 1523.67 449.962C1508.83 449.962 1496.87 435.693 1496.87 418.007C1496.87 400.322 1508.83 386.053 1523.67 386.053C1538.5 386.053 1550.47 400.322 1550.47 418.007Z" stroke="#B76C4E" stroke-miterlimit="10"/>
<path opacity="0.3" d="M1414.95 61.0816C1414.95 78.7671 1402.98 93.0361 1388.15 93.0361C1373.32 93.0361 1361.35 78.7671 1361.35 61.0816C1361.35 43.3961 1373.32 29.1271 1388.15 29.1271C1402.98 29.1271 1414.95 43.3961 1414.95 61.0816Z" stroke="#B76C4E" stroke-miterlimit="10"/>
<path opacity="0.3" d="M1432.14 1005.05C1432.14 1022.73 1420.18 1037 1405.34 1037C1390.51 1037 1378.54 1022.73 1378.54 1005.05C1378.54 987.36 1390.51 973.091 1405.34 973.091C1420.01 972.89 1432.14 987.36 1432.14 1005.05Z" stroke="#B76C4E" stroke-miterlimit="10"/>
<path opacity="0.3" d="M1503.78 957.214C1503.78 939.529 1515.75 925.26 1530.58 925.26C1545.41 925.26 1557.38 939.529 1557.38 957.214" stroke="#B76C4E" stroke-miterlimit="10"/>
<path opacity="0.3" d="M1289.72 466.039C1289.72 448.354 1301.68 434.085 1316.52 434.085C1331.35 434.085 1343.32 448.354 1343.32 466.039" stroke="#B76C4E" stroke-miterlimit="10"/>
<path opacity="0.3" d="M1007.56 206.384C1007.56 188.699 1019.53 174.43 1034.19 174.43C1048.85 174.43 1060.82 188.699 1060.82 206.384" stroke="#B76C4E" stroke-miterlimit="10"/>
<path opacity="0.3" d="M1683.62 258.637C1668.79 258.637 1656.82 244.368 1656.82 226.883C1656.82 209.399 1668.79 195.13 1683.62 195.13" stroke="#B76C4E" stroke-miterlimit="10"/>
<path opacity="0.3" d="M1037.73 1004.84C1022.9 1004.84 1010.93 990.575 1010.93 973.091C1010.93 955.606 1022.9 941.337 1037.73 941.337" stroke="#B76C4E" stroke-miterlimit="10"/>
<path opacity="0.3" d="M1051.21 668.418C1051.21 686.103 1039.25 700.372 1024.41 700.372C1009.58 700.372 997.613 686.103 997.613 668.418C997.613 650.732 1009.58 636.463 1024.41 636.463C1039.25 636.463 1051.21 650.732 1051.21 668.418Z" stroke="#B76C4E" stroke-miterlimit="10"/>
<path opacity="0.3" d="M1878.3 704.995C1878.3 722.68 1866.34 736.949 1851.5 736.949C1836.67 736.949 1824.7 722.68 1824.7 704.995C1824.7 687.309 1836.67 673.04 1851.5 673.04C1866.34 673.04 1878.3 687.309 1878.3 704.995Z" stroke="#B76C4E" stroke-miterlimit="10"/>
<path opacity="0.3" d="M1857.57 194.929H1804.14V258.637H1857.57V194.929Z" stroke="#B76C4E" stroke-miterlimit="10"/>
<path opacity="0.3" d="M1254.32 226.883H1200.89V290.591H1254.32V226.883Z" stroke="#B76C4E" stroke-miterlimit="10"/>
<path opacity="0.3" d="M1251.62 633.047H1198.19V696.755H1251.62V633.047Z" stroke="#B76C4E" stroke-miterlimit="10"/>
<path opacity="0.3" d="M1857.57 941.136H1804.14V1004.84H1857.57V941.136Z" stroke="#B76C4E" stroke-miterlimit="10"/>
<g opacity="0.3">
<path opacity="0.3" d="M1506.14 570.947C1494.51 570.947 1496.53 546.227 1481.7 546.227" stroke="#B76C4E" stroke-miterlimit="10"/>
<path opacity="0.3" d="M1555.19 570.947C1543.56 570.947 1545.58 546.227 1530.75 546.227" stroke="#B76C4E" stroke-miterlimit="10"/>
<path opacity="0.3" d="M1506.14 570.947C1517.77 570.947 1515.75 546.227 1530.58 546.227" stroke="#B76C4E" stroke-miterlimit="10"/>
<path opacity="0.3" d="M1555.19 570.947C1566.82 570.947 1564.8 546.227 1579.63 546.227" stroke="#B76C4E" stroke-miterlimit="10"/>
</g>
<g opacity="0.3">
<path opacity="0.3" d="M1645.7 1029.56C1634.07 1029.56 1636.09 1004.84 1621.26 1004.84" stroke="#B76C4E" stroke-miterlimit="10"/>
<path opacity="0.3" d="M1694.75 1029.56C1683.12 1029.56 1685.14 1004.84 1670.31 1004.84" stroke="#B76C4E" stroke-miterlimit="10"/>
<path opacity="0.3" d="M1645.7 1029.56C1657.33 1029.56 1655.31 1004.84 1670.14 1004.84" stroke="#B76C4E" stroke-miterlimit="10"/>
<path opacity="0.3" d="M1694.75 1029.56C1706.38 1029.56 1704.36 1004.84 1719.19 1004.84" stroke="#B76C4E" stroke-miterlimit="10"/>
</g>
<g opacity="0.3">
<path opacity="0.3" d="M1712.62 368.367C1700.99 368.367 1703.01 343.648 1688.18 343.648" stroke="#B76C4E" stroke-miterlimit="10"/>
<path opacity="0.3" d="M1761.49 368.367C1749.86 368.367 1751.89 343.648 1737.05 343.648" stroke="#B76C4E" stroke-miterlimit="10"/>
<path opacity="0.3" d="M1712.62 368.367C1724.25 368.367 1722.22 343.648 1737.06 343.648" stroke="#B76C4E" stroke-miterlimit="10"/>
<path opacity="0.3" d="M1761.5 368.367C1773.13 368.367 1771.1 343.648 1785.94 343.648" stroke="#B76C4E" stroke-miterlimit="10"/>
</g>
<g opacity="0.3">
<path opacity="0.3" d="M1031.16 338.624C1019.52 338.624 1021.55 313.904 1006.71 313.904" stroke="#B76C4E" stroke-miterlimit="10"/>
<path opacity="0.3" d="M1080.2 338.624C1068.57 338.624 1070.59 313.904 1055.76 313.904" stroke="#B76C4E" stroke-miterlimit="10"/>
<path opacity="0.3" d="M1031.15 338.624C1042.78 338.624 1040.76 313.904 1055.59 313.904" stroke="#B76C4E" stroke-miterlimit="10"/>
<path opacity="0.3" d="M1080.2 338.624C1091.83 338.624 1089.81 313.904 1104.64 313.904" stroke="#B76C4E" stroke-miterlimit="10"/>
</g>
<g opacity="0.3">
<path opacity="0.3" d="M1510.18 8.82886C1510.18 22.6959 1489.45 20.2842 1489.45 37.9697" stroke="#B76C4E" stroke-miterlimit="10"/>
<path opacity="0.3" d="M1510.18 8.82888C1510.18 -5.03817 1489.45 -2.62651 1489.45 -20.312" stroke="#B76C4E" stroke-miterlimit="10"/>
</g>
<g opacity="0.3">
<path opacity="0.3" d="M1360 314.507C1360 328.374 1339.27 325.962 1339.27 343.648" stroke="#B76C4E" stroke-miterlimit="10"/>
<path opacity="0.3" d="M1360 256.024C1360 269.891 1339.27 267.479 1339.27 285.165" stroke="#B76C4E" stroke-miterlimit="10"/>
<path opacity="0.3" d="M1360 314.507C1360 300.64 1339.27 303.051 1339.27 285.366" stroke="#B76C4E" stroke-miterlimit="10"/>
<path opacity="0.3" d="M1360 256.024C1360 242.157 1339.27 244.569 1339.27 226.883" stroke="#B76C4E" stroke-miterlimit="10"/>
</g>
<g opacity="0.3">
<path opacity="0.3" d="M1767.23 802.667C1767.23 816.534 1746.49 814.122 1746.49 831.808" stroke="#B76C4E" stroke-miterlimit="10"/>
<path opacity="0.3" d="M1767.23 744.184C1767.23 758.051 1746.49 755.64 1746.49 773.325" stroke="#B76C4E" stroke-miterlimit="10"/>
<path opacity="0.3" d="M1767.23 802.667C1767.23 788.8 1746.49 791.212 1746.49 773.526" stroke="#B76C4E" stroke-miterlimit="10"/>
<path opacity="0.3" d="M1767.23 744.184C1767.23 730.317 1746.49 732.729 1746.49 715.043" stroke="#B76C4E" stroke-miterlimit="10"/>
</g>
<g opacity="0.3">
<path opacity="0.3" d="M1261.9 848.689C1261.9 862.556 1241.17 860.145 1241.17 877.83" stroke="#B76C4E" stroke-miterlimit="10"/>
<path opacity="0.3" d="M1261.9 790.207C1261.9 804.074 1241.17 801.662 1241.17 819.347" stroke="#B76C4E" stroke-miterlimit="10"/>
<path opacity="0.3" d="M1261.9 848.689C1261.9 834.822 1241.17 837.234 1241.17 819.548" stroke="#B76C4E" stroke-miterlimit="10"/>
<path opacity="0.3" d="M1261.9 790.207C1261.9 776.34 1241.17 778.751 1241.17 761.066" stroke="#B76C4E" stroke-miterlimit="10"/>
</g>
<path opacity="0.3" d="M1564.79 636.463H1625.3" stroke="#B76C4E" stroke-miterlimit="10"/>
<path opacity="0.3" d="M970.477 428.056H1030.99" stroke="#B76C4E" stroke-miterlimit="10"/>
<path opacity="0.3" d="M1569.35 93.0361H1629.86" stroke="#B76C4E" stroke-miterlimit="10"/>
<path opacity="0.3" d="M1211.51 1004.84H1272.02" stroke="#B76C4E" stroke-miterlimit="10"/>
<path opacity="0.3" d="M1366.74 865.571L1409.56 814.524" stroke="#B76C4E" stroke-miterlimit="10"/>
<path opacity="0.3" d="M1837.85 503.822L1880.66 452.976" stroke="#B76C4E" stroke-miterlimit="10"/>
</g>
<path d="M528.412 779.966C523.561 783.549 517.037 781.957 514.026 775.985C511.015 770.212 512.353 762.448 517.372 758.864C522.223 755.281 528.747 756.874 531.758 762.846C534.769 768.42 533.263 776.184 528.412 779.966Z" stroke="#B76C4E" stroke-width="5" stroke-miterlimit="10" stroke-linecap="round" stroke-linejoin="round"/>
<path d="M1482.46 779.966C1477.61 783.549 1471.09 781.957 1468.07 775.985C1465.06 770.212 1466.4 762.448 1471.42 758.864C1476.27 755.281 1482.8 756.874 1485.81 762.846C1488.82 768.42 1487.31 776.184 1482.46 779.966Z" stroke="#B76C4E" stroke-width="5" stroke-miterlimit="10" stroke-linecap="round" stroke-linejoin="round"/>
<path d="M444.908 433.973C440.057 437.556 433.533 435.964 430.522 429.992C427.511 424.219 428.849 416.455 433.868 412.872C438.719 409.288 445.243 410.881 448.254 416.853C451.265 422.626 449.76 430.39 444.908 433.973Z" stroke="#B76C4E" stroke-width="5" stroke-miterlimit="10" stroke-linecap="round" stroke-linejoin="round"/>
<path d="M1398.96 433.973C1394.1 437.556 1387.58 435.964 1384.57 429.992C1381.56 424.219 1382.9 416.455 1387.91 412.872C1392.77 409.288 1399.29 410.881 1402.3 416.853C1405.31 422.626 1403.81 430.39 1398.96 433.973Z" stroke="#B76C4E" stroke-width="5" stroke-miterlimit="10" stroke-linecap="round" stroke-linejoin="round"/>
<path d="M64.7132 540.912C59.6194 544.675 52.7692 543.003 49.6075 536.732C46.4459 530.67 47.8511 522.518 53.1205 518.756C58.2142 514.993 65.0645 516.665 68.2261 522.936C71.3877 528.998 69.8069 536.941 64.7132 540.912Z" stroke="#B76C4E" stroke-width="5" stroke-miterlimit="10" stroke-linecap="round" stroke-linejoin="round"/>
<path d="M1018.76 540.912C1013.67 544.675 1006.82 543.003 1003.66 536.732C1000.49 530.67 1001.9 522.518 1007.17 518.756C1012.26 514.993 1019.11 516.665 1022.27 522.936C1025.44 528.998 1023.86 536.941 1018.76 540.912Z" stroke="#B76C4E" stroke-width="5" stroke-miterlimit="10" stroke-linecap="round" stroke-linejoin="round"/>
<path d="M172.471 143.986C167.62 147.569 161.096 145.977 158.085 140.005C155.073 134.232 156.412 126.468 161.43 122.884C166.281 119.301 172.805 120.894 175.817 126.866C178.828 132.639 177.322 140.204 172.471 143.986Z" stroke="#B76C4E" stroke-width="5" stroke-miterlimit="10" stroke-linecap="round" stroke-linejoin="round"/>
<path d="M1126.52 143.986C1121.67 147.569 1115.14 145.977 1112.13 140.005C1109.12 134.232 1110.46 126.468 1115.48 122.884C1120.33 119.301 1126.85 120.894 1129.87 126.866C1132.88 132.639 1131.37 140.204 1126.52 143.986Z" stroke="#B76C4E" stroke-width="5" stroke-miterlimit="10" stroke-linecap="round" stroke-linejoin="round"/>
<path d="M753.877 137.763C749.026 141.347 742.502 139.754 739.491 133.782C736.48 128.009 737.818 120.245 742.836 116.662C747.688 113.078 754.212 114.671 757.223 120.643C760.234 126.416 758.728 133.981 753.877 137.763Z" stroke="#B76C4E" stroke-width="5" stroke-miterlimit="10" stroke-linecap="round" stroke-linejoin="round"/>
<path d="M1707.93 137.763C1703.07 141.347 1696.55 139.754 1693.54 133.782C1690.53 128.009 1691.87 120.245 1696.89 116.662C1701.74 113.078 1708.26 114.671 1711.27 120.643C1714.28 126.416 1712.78 133.981 1707.93 137.763Z" stroke="#B76C4E" stroke-width="5" stroke-miterlimit="10" stroke-linecap="round" stroke-linejoin="round"/>
<path d="M903.056 586.962C898.231 590.724 891.742 589.052 888.748 582.781C885.753 576.719 887.084 568.567 892.075 564.805C896.9 561.042 903.388 562.715 906.383 568.985C909.544 575.047 908.047 582.99 903.056 586.962Z" stroke="#B76C4E" stroke-width="5" stroke-miterlimit="10" stroke-linecap="round" stroke-linejoin="round"/>
<path d="M1857.1 586.962C1852.28 590.724 1845.79 589.052 1842.8 582.781C1839.8 576.719 1841.13 568.567 1846.12 564.805C1850.95 561.042 1857.44 562.715 1860.43 568.985C1863.59 575.047 1862.1 582.99 1857.1 586.962Z" stroke="#B76C4E" stroke-width="5" stroke-miterlimit="10" stroke-linecap="round" stroke-linejoin="round"/>
</g>
</g>
</svg>
